<?xml version="1.0" encoding="utf-8"?><!-- Uploaded to: SVG Repo, www.svgrepo.com, Generator: SVG Repo Mixer Tools -->
<svg version="1.1" id="Uploaded to svgrepo.com" xmlns="http://www.w3.org/2000/svg" xmlns:xlink="http://www.w3.org/1999/xlink" 
	 width="800px" height="800px" viewBox="0 0 32 32" xml:space="preserve">
<style type="text/css">
	.sharpcorners_een{fill:#111918;}
	.st0{fill:#0B1719;}
</style>
<path class="sharpcorners_een" d="M13.019,14.876L13.019,14.876L13.019,14.876L13.019,14.876z M13.398,19.548
	C14.398,20.758,15,22.31,15,24c0,3.86-3.14,7-7,7s-7-3.14-7-7s3.14-7,7-7h2.099l1.25-0.909l-1.25-0.909H8c-3.86,0-7-3.14-7-7
	s3.14-7,7-7s7,3.14,7,7c0,1.69-0.602,3.242-1.602,4.452l1.352,0.984l9.615-6.993c4.459-3.243,6.811-0.007,6.811-0.007L13.398,19.548
	z M14,16c0,0.552,0.448,1,1,1s1-0.448,1-1c0-0.552-0.448-1-1-1S14,15.448,14,16z M12,24c0-2.209-1.791-4-4-4s-4,1.791-4,4
	c0,2.209,1.791,4,4,4S12,26.209,12,24z M12,8.182c0-2.209-1.791-4-4-4s-4,1.791-4,4c0,2.209,1.791,4,4,4S12,10.391,12,8.182z
	 M15.6,19.182l8.765,6.375c4.459,3.243,6.811,0.007,6.811,0.007l-12.176-8.855L15.6,19.182z"/>
</svg>